General
Complete name                    : Universal Soldier-Regeneration.avi
Format                           : AVI
File size                        : 1.37 GiB
Duration                         : 1h 36mn
Overall bit rate                 : 2 022 Kbps

Video

Format                           : MPEG-4 Visual
Codec ID/Hint                    : XviD
Duration                         : 1h 36mn
Bit rate                         : 1 563 Kbps
Width                            : 720 pixels
Height                           : 496 pixels
Display aspect ratio             : 2.065
Stream size                      : 1.06 GiB (77%)
Writing library                  : XviD 1.1.2 (UTC 2006-11-01)

Audio

Format                           : AC-3
Duration                         : 1h 36mn
Bit rate                         : 448 Kbps
Channel(s)                       : 6 channels
Channel positions                : Front: L C R, Side: L R, LFE
Sampling rate                    : 48.0 KHz
Stream size                      : 310 MiB (22%)

 
http://www.imdb.com/title/tt1288403/